<svg width="310" height="44" viewBox="0 0 310 44" fill="none" xmlns="http://www.w3.org/2000/svg">
<g clip-path="url(#clip0_2_44)">
<path d="M96.3831 32.6739C96.3855 33.9476 96.0112 35.1936 95.307 36.2549C94.604 37.3151 93.602 38.1428 92.428 38.6329C91.2553 39.1225 89.9633 39.2519 88.7167 39.0047C87.4701 38.7576 86.3253 38.1449 85.428 37.2449C84.5289 36.3429 83.9166 35.1953 83.668 33.9462C83.4195 32.6971 83.5458 31.4024 84.031 30.2249C84.5156 29.048 85.3383 28.0413 86.395 27.3319C87.6285 26.5049 89.111 26.1322 90.589 26.2776C92.0669 26.423 93.4484 27.0774 94.497 28.1289C95.7013 29.3354 96.3793 30.9693 96.3831 32.6739Z" fill="#E5E044"/>
<path d="M77.102 35.135C80.2252 32.6858 82.3802 29.2096 83.185 25.323C83.991 21.433 83.397 17.383 81.508 13.892C79.6216 10.4037 76.559 7.69753 72.865 6.255C69.1749 4.81492 65.0929 4.73445 61.349 6.028C57.6016 7.32442 54.4358 9.90837 52.415 13.32C50.3897 16.7367 49.6378 20.7594 50.292 24.677C50.9448 28.5924 52.9627 32.1502 55.988 34.72C59.0077 37.285 62.8409 38.6931 66.803 38.693C70.5376 38.6944 74.1646 37.4414 77.102 35.135ZM33.423 20.765V0C31.229 0 29.071 0.563 27.156 1.638C25.2397 2.71384 23.6315 4.26321 22.485 6.138C19.1435 4.90983 15.4967 4.78298 12.078 5.776C8.65606 6.77112 5.64131 8.83292 3.47296 11.661C1.30073 14.4932 0.0855904 17.9429 0.00325769 21.5112C-0.079075 25.0796 0.975667 28.5816 3.01496 31.511C5.05044 34.4366 7.96665 36.636 11.339 37.789C14.708 38.9398 18.3569 38.9826 21.752 37.911C25.15 36.8377 28.1167 34.7077 30.22 31.831C32.327 28.9496 33.4628 25.4726 33.463 21.903C33.463 21.519 33.443 21.141 33.423 20.765ZM41.652 12.934C39.962 12.934 38.34 13.608 37.145 14.807C35.9487 16.0079 35.277 17.6339 35.277 19.329V38.693C36.9628 38.6925 38.632 38.3592 40.1887 37.7122C41.7455 37.0653 43.1593 36.1174 44.349 34.923C46.7564 32.506 48.1078 29.2334 48.107 25.822V19.417C48.107 17.699 47.427 16.051 46.217 14.835C45.6184 14.2335 44.9072 13.756 44.1238 13.4298C43.3405 13.1036 42.5005 12.9351 41.652 12.934Z" fill="white"/>
<path d="M48.117 6.43993C48.1173 7.71355 47.7408 8.9588 47.035 10.0189C46.3308 11.0771 45.3285 11.9026 44.155 12.3909C42.9819 12.8791 41.69 13.007 40.4439 12.7584C39.1978 12.5098 38.054 11.8959 37.158 10.9949C36.2602 10.0923 35.649 8.94456 35.4014 7.69577C35.1537 6.44698 35.2806 5.15286 35.766 3.97593C36.2514 2.80003 37.0744 1.79436 38.131 1.08593C39.3652 0.258632 40.8486 -0.113845 42.3272 0.0322823C43.8058 0.17841 45.1876 0.834052 46.236 1.88693C47.4403 3.0962 48.1166 4.73325 48.117 6.43993Z" fill="white"/>
<path d="M119.203 32.6839V38.943H115.409V32.944C115.409 30.673 115.03 30.017 113.628 30.017C111.566 30.017 111.09 31.8269 111.09 34.7309V38.943H107.297V32.944C107.297 30.673 106.917 30.017 105.515 30.017C103.453 30.017 102.977 31.8269 102.977 34.7309V38.943H99.184V26.9249H102.977V28.1369L102.268 30.284H103.216C103.689 28.142 104.781 26.69 107.105 26.69C109.369 26.69 110.308 28.19 110.665 30.284H111.352C111.827 28.142 112.894 26.69 115.218 26.69C118.28 26.685 119.203 29.4459 119.203 32.6839ZM125.653 31.874L129.427 31.3519C129.427 30.3749 128.672 29.78 127.029 29.78C125.52 29.78 124.657 30.4229 124.657 31.518H121.1C121.1 28.472 123.686 26.686 127.029 26.686C130.327 26.686 133.223 28.2809 133.223 32.2379V35.6189H134.953V38.951H132.32C131.182 38.951 130.541 38.307 130.541 37.166V36.914L131.135 35.486H130.184C129.733 37.4839 128.571 39.1759 125.228 39.1759C121.502 39.1759 120.863 36.8909 120.863 35.6419C120.863 33.5879 122.096 32.374 125.653 31.874ZM125.962 35.8489C128.05 35.8489 129.427 34.969 129.427 33.492L126.365 33.921C125.228 34.087 124.657 34.254 124.657 34.943C124.657 35.632 125.321 35.8489 125.962 35.8489ZM142.806 34.3019L140.173 35.5379V38.943H136.379V21.45H140.173V31.61L145.654 29.087L145.606 26.9209H149.415V29.5389C149.415 30.679 148.965 31.419 147.921 31.919L146.069 32.7739L150.127 38.9389H145.795L142.806 34.3009V34.3019ZM156.661 26.686C160.386 26.686 162.995 28.899 162.995 32.541V33.7309H153.909C153.909 35.1099 154.915 36.0859 157.063 36.0859C158.394 36.0859 159.39 35.612 159.627 34.706H163.423C163.184 36.445 161.217 39.18 157.063 39.18C152.462 39.18 150.352 36.182 150.352 32.778C150.352 28.972 152.938 26.686 156.661 26.686ZM159.428 31.589C159.428 30.683 158.764 29.7789 156.661 29.7789C154.558 29.7789 153.909 30.683 153.909 31.589H159.428Z" fill="#E5E044"/>
<path d="M174.951 35.6119V38.943L168.757 39.181C167.454 39.229 166.745 38.466 166.745 37.1609V30.257H163.895V26.926H166.742V24.6539L170.546 23.471V26.923H174.483V30.254H170.546V35.847L174.951 35.6119ZM190.321 32.444V38.943H186.525V33.04C186.525 30.85 185.886 30.0119 184.06 30.0119C181.995 30.0119 180.644 31.107 180.644 34.486V38.938H176.848V21.45H180.644V28.375L179.932 30.5149H180.88C181.356 28.3749 182.85 26.6849 185.408 26.6849C188.472 26.6849 190.321 28.731 190.321 32.443V32.444ZM198.055 26.686C201.781 26.686 204.39 28.899 204.39 32.541V33.7309H195.303C195.303 35.1099 196.309 36.0859 198.458 36.0859C199.786 36.0859 200.785 35.612 201.021 34.706H204.817C204.566 36.445 202.611 39.18 198.458 39.18C193.857 39.18 191.746 36.182 191.746 32.778C191.746 28.972 194.332 26.686 198.055 26.686ZM200.823 31.589C200.823 30.683 200.158 29.7789 198.055 29.7789C195.952 29.7789 195.303 30.683 195.303 31.589H200.823Z" fill="white"/>
<path d="M212.556 26.686C215.826 26.686 218.817 28.4719 218.983 31.8969H215.18C215.039 30.827 214.065 30.017 212.548 30.017C210.745 30.017 209.796 31.089 209.796 32.922C209.796 34.754 210.745 35.8489 212.548 35.8489C214.058 35.8489 215.039 35.039 215.18 33.969H218.976C218.81 37.396 215.821 39.18 212.548 39.18C208.73 39.18 206.008 36.944 206.008 32.922C206.008 28.899 208.73 26.686 212.556 26.686ZM233.872 32.444V38.943H230.076V33.04C230.076 30.85 229.437 30.0119 227.611 30.0119C225.545 30.0119 224.195 31.107 224.195 34.486V38.938H220.398V21.45H224.195V28.375L223.483 30.5149H224.431C224.906 28.3749 226.401 26.6849 228.959 26.6849C232.023 26.6849 233.872 28.731 233.872 32.443V32.444ZM240.327 31.874L244.101 31.3519C244.101 30.3749 243.346 29.78 241.704 29.78C240.194 29.78 239.331 30.4229 239.331 31.518H235.774C235.774 28.472 238.358 26.686 241.704 26.686C245.002 26.686 247.895 28.2809 247.895 32.2379V35.6189H249.628V38.951H246.994C245.854 38.951 245.215 38.307 245.215 37.166V36.914L245.807 35.486H244.858C244.408 37.4839 243.246 39.1759 239.9 39.1759C236.177 39.1759 235.535 36.8909 235.535 35.6419C235.535 33.5879 236.77 32.374 240.327 31.874ZM240.637 35.8489C242.725 35.8489 244.101 34.969 244.101 33.492L241.039 33.921C239.9 34.087 239.331 34.254 239.331 34.943C239.331 35.632 239.995 35.8489 240.637 35.8489ZM254.845 34.491V38.943H251.047V26.9249H254.84V28.3759L254.129 30.516H255.079C255.552 28.376 257.047 26.686 259.608 26.686C262.667 26.686 264.518 28.7319 264.518 32.445V38.943H260.722V33.04C260.722 30.85 260.081 30.0119 258.254 30.0119C256.199 30.0169 254.845 31.112 254.845 34.492V34.491ZM281.272 26.9249V30.257H280.479C280.094 30.2212 279.707 30.2954 279.362 30.471C279.596 30.893 279.711 31.37 279.695 31.851C279.695 34.123 277.584 35.5389 274.286 36.6469C277.015 36.4799 279.554 37.194 279.554 39.741C279.554 43.286 275.4 43.693 266.505 43.693V40.379C274.263 40.379 275.732 40.261 275.732 38.9529C275.732 37.1869 271.441 37.977 267.763 38.595L267.36 36.455C270.087 36.167 272.555 35.882 274.736 35.36V34.3979C270.349 35.9679 265.723 35.324 265.723 31.37C265.723 28.205 268.711 26.68 272.485 26.68C274.311 26.68 275.971 27.039 277.229 27.965C277.939 27.039 279.174 26.92 280.248 26.92L281.272 26.9249ZM275.888 31.6119C275.888 30.6019 274.985 30.017 272.709 30.017C270.432 30.017 269.506 30.613 269.506 31.6119C269.506 32.6119 270.432 33.207 272.709 33.207C274.985 33.207 275.888 32.6369 275.888 31.6119ZM288.294 26.686C292.019 26.686 294.628 28.899 294.628 32.541V33.7309H285.542C285.542 35.1099 286.548 36.0859 288.699 36.0859C290.027 36.0859 291.023 35.612 291.26 34.706H295.056C294.819 36.445 292.849 39.18 288.699 39.18C284.095 39.18 281.984 36.182 281.984 32.778C281.989 28.972 284.57 26.686 288.294 26.686ZM291.061 31.589C291.061 30.683 290.397 29.7789 288.294 29.7789C286.191 29.7789 285.542 30.683 285.542 31.589H291.061ZM310 39.417V42.2739H297.188V39.417H310Z" fill="#E5E044"/>
</g>
<defs>
<clipPath id="clip0_2_44">
<rect width="310" height="44" fill="white"/>
</clipPath>
</defs>
</svg>
